<?xml version="1.0" encoding="UTF-8" standalone="no"?>
<svg
   width="389.81897"
   height="381.31107"
   viewBox="0 0 389.81897 381.31107"
   version="1.1"
   xml:space="preserve"
   style="clip-rule:evenodd;fill-rule:evenodd;stroke-linecap:round;stroke-linejoin:round;stroke-miterlimit:1.5"
   id="svg637"
   xmlns="http://www.w3.org/2000/svg"
   xmlns:svg="http://www.w3.org/2000/svg"><defs
   id="defs641" />
    
    
    
    
    
    
    <g
   id="earp"
   transform="translate(-5396.9146,-5370.1203)">
        <g
   transform="matrix(0.948828,-0.315794,0.211232,0.983629,-986.161,1686.47)"
   id="g183">
            <path
   d="m 5480.32,5716.53 -11.82,-11.81 59.06,-82.67 9.52,141.73 z"
   style="fill:#ffffff"
   id="path181" />
        </g>
        <g
   transform="matrix(0.948828,-0.315794,0.211232,0.983629,-986.161,1686.47)"
   id="g187">
            <path
   d="m 5537.08,5763.78 -9.52,-141.73 h 283.46 l 35.44,129.92 z"
   style="fill:#ffffff"
   id="path185" />
        </g>
        <g
   transform="matrix(0.948828,-0.315794,0.211232,0.983629,-986.161,1686.47)"
   id="g191">
            <path
   d="m 5557.88,5905.51 -77.56,-106.3 v -82.68 l 56.76,47.25 h 20.8 z"
   style="fill:#ffffff"
   id="path189" />
        </g>
        <g
   transform="matrix(0.948828,-0.315794,0.211232,0.983629,-986.161,1686.47)"
   id="g195">
            <path
   d="m 5557.88,5905.51 -77.56,-106.3 v -82.68 l -11.82,-11.81 59.06,-82.67 9.52,141.73 h 20.8 z"
   style="fill:none;stroke:#000000;stroke-width:21.83px"
   id="path193" />
        </g>
        <g
   transform="matrix(0.948828,-0.315794,0.211232,0.983629,-986.161,1686.47)"
   id="g199">
            <path
   d="m 5480.32,5716.53 56.76,47.25"
   style="fill:none;stroke:#000000;stroke-width:21.83px"
   id="path197" />
        </g>
        <g
   transform="matrix(0.948828,-0.315794,0.211232,0.983629,-986.161,1686.47)"
   id="g203">
            <path
   d="m 5537.08,5763.78 309.38,-11.81 -35.44,-129.92 h -283.46 z"
   style="fill:none;stroke:#000000;stroke-width:21.83px"
   id="path201" />
        </g>
        <g
   transform="matrix(0.948828,-0.315794,0.211232,0.983629,-986.161,1686.47)"
   id="g207">
            <path
   d="m 5557.88,5905.51 v -142.53 l 253.14,-9.66 v 128.57 z"
   style="fill:#ffffff"
   id="path205" />
        </g>
        <g
   transform="matrix(0.948828,-0.315794,0.211232,0.983629,-986.161,1686.47)"
   id="g211">
            <path
   d="m 5557.88,5905.51 253.14,-23.62 v -128.57 l -253.14,9.66 z"
   style="fill:none;stroke:#000000;stroke-width:21.83px"
   id="path209" />
        </g>
    </g>
    
    
    
    
    
    
    
    
    
    
    
    
    
    
    
    
    
    
    
    
    
</svg>
